<?xml version="1.0" encoding="UTF-8"?>
<svg id="Layer_1" xmlns="http://www.w3.org/2000/svg" xmlns:xlink="http://www.w3.org/1999/xlink" version="1.1" viewBox="0 0 512 512">
  <!-- Generator: Adobe Illustrator 29.3.0, SVG Export Plug-In . SVG Version: 2.1.0 Build 146)  -->
  <g id="VyLfun">
    <g>
      <path d="M344.8,512h-20c-11.1-2.2-21.9-4.5-32.2-9.3-29-13.5-50.5-41.8-55.5-73.5s-3.2-19.2,2.3-27.1c7.7-11.3,23.4-11.9,31.9-1.1,6,7.7,4.1,17.2,6.3,26.7,11.1,46.5,71.5,59.9,102,22.8,29.9-36.2,6.6-90.9-39.4-95.5H20.5c-10.9-1-16.4-6.2-20.5-16v-9c3.2-7.8,8.6-14.2,17.4-15.1h325.9c108.6,11.7,122.2,162.7,17.4,193.5l-16,3.5Z"/>
      <path d="M511.6,167c.5,5.3.5,14.7,0,20-4.4,47.4-46,86.8-93.4,89H98.4c-24.6-2.6-24.6-37.5,0-40h318.8c53-4.6,74.3-71.3,31.9-105-32-25.5-82.2-9.2-92.6,30.3-3.2,12,.6,27.6-13.2,33.8-10.5,4.7-25,.2-28-11.4-6.9-26.7,13.5-64.2,33.3-81.3,59.3-51.4,155.7-13.7,162.9,64.5Z"/>
      <path d="M199.9,0c7.4,1.9,15,2.8,22.2,5.2,99.8,34,81.3,181.6-22.7,191.8H16.5c-8.5-1.6-13.4-7.5-16.5-15v-9c3.5-8.5,9-14.7,18.6-15.9h178.8c41.5-6.3,64.4-51.1,43-88.1s-98.1-34-108.2,18.8c-1.9,10.2.6,20.9-9.6,27.4-15.5,10-32.1-2.1-31.7-19.7.9-41.3,30.8-79.1,69.7-91.3l19.2-4.3h20Z"/>
    </g>
  </g>
</svg>